:SAMPLES-PER-SECOND 30
:FULLY-SPECIFIED
:DEGREES
147
root  8.64296 32.1676 5.08496 -168.721 -53.8672 173.961
RightUpLeg  -57.0686 8.37681 -4.95519
RightLeg  66.2563 0.868364 1.49843
RightFoot  -13.2511 -0.0411416 2.93813
RightToes  5.82063e-011 0 -3.6325e-017
Spine  46.7258 -3.38129 4.03498
Spine1  -14.2731 -0.54976 -6.31562
HEad  -58.2578 -21.3856 12.3785
LeftShoulder1  -0.0725268 -4.12823 10.75
LeftArm  68.8158 -73.2649 -145.569
LeftForeArm  142.896 -77.3306 -131.564
LeftHand  -1.06485 0.283897 24.0943
RightShoulder  -0.225151 -1.42691 -22.6575
RightArm  -155.584 79.9531 -87.0299
RightForeArm  11.3956 -6.39474 3.03499
RightHand  0.234709 -7.4556 -14.3572
LeftUpLeg  -50.5888 0.536958 -10.6532
LeftLeg  69.446 8.38763 24.1829
LeftFoot  -21.8539 -0.465393 -6.47477
LeftToes  -1.1369e-010 2.7689e-011 -1.90827e-011
148
root  8.5346 33.2215 5.31346 -168.4 -52.0308 174.693
RightUpLeg  -54.8956 8.67588 -4.97344
RightLeg  60.2607 1.84644 2.98925
RightFoot  -10.6105 -0.0927704 3.14679
RightToes  5.82063e-011 0 -3.6325e-017
Spine  45.8976 -4.04037 5.5457
Spine1  -12.5736 -0.271804 -8.89005
HEad  -61.112 -22.8427 12.4276
LeftShoulder1  -0.0916237 -3.5959 11.1382
LeftArm  70.4127 -71.9036 -146.573
LeftForeArm  141.897 -77.5036 -130.61
LeftHand  -1.09209 -0.000189901 23.4316
RightShoulder  -0.42333 1.52921 -19.4019
RightArm  -133.578 87.0497 -61.6257
RightForeArm  15.7514 -6.61318 4.30975
RightHand  0.326644 -8.21908 -14.3572
LeftUpLeg  -48.5755 0.372318 -10.255
LeftLeg  64.4782 11.3436 24.8604
LeftFoot  -19.526 -0.335028 -6.2964
LeftToes  -1.1369e-010 2.7689e-011 -1.90827e-011
149
root  8.37551 34.465 5.47942 -168.368 -50.0668 176.496
RightUpLeg  -52.1649 8.49171 -3.94409
RightLeg  52.565 3.48602 4.49703
RightFoot  -7.35332 -0.163455 3.28913
RightToes  5.82063e-011 0 -3.6325e-017
Spine  45.1654 -3.85798 6.43926
Spine1  -12.3078 0.302523 -9.13479
HEad  -61.2144 -22.4043 11.9444
LeftShoulder1  -0.0925941 -2.90224 11.3104
LeftArm  72.1909 -71.7648 -147.986
LeftForeArm  142.166 -77.2622 -131.655
LeftHand  -1.07772 -0.0515242 22.922
RightShoulder  -0.42844 3.35277 -16.8454
RightArm  -19.0228 85.9802 55.244
RightForeArm  18.9828 -6.76345 5.25634
RightHand  0.388363 -9.02253 -13.2774
LeftUpLeg  -46.3568 -0.532757 -8.75283
LeftLeg  58.5745 15.3133 25.5174
LeftFoot  -16.6382 -0.177495 -6.00457
LeftToes  -1.1369e-010 2.7689e-011 -1.90827e-011
150
root  8.17736 35.5987 5.57554 -168.257 -47.9878 178.443
RightUpLeg  -49.4113 7.83574 -2.33291
RightLeg  44.8116 5.7706 5.80479
RightFoot  -3.99956 -0.221974 3.04663
RightToes  5.82063e-011 0 -3.6325e-017
Spine  44.2514 -2.83581 5.83984
Spine1  -12.7095 0.85545 -6.82585
HEad  -58.3484 -20.631 11.7876
LeftShoulder1  -0.0706561 -1.99594 11.1276
LeftArm  74.2532 -72.5886 -150.006
LeftForeArm  142.192 -76.9766 -132.773
LeftHand  -1.05466 0.0778184 22.9745
RightShoulder  -0.388071 3.80277 -15.8112
RightArm  -10.2293 83.2562 64.1518
RightForeArm  20.3643 -6.89391 6.08086
RightHand  0.402302 -9.57456 -11.9888
LeftUpLeg  -44.4198 -1.81073 -6.82312
LeftLeg  53.2098 19.761 26.3127
LeftFoot  -13.5561 -0.0380262 -6.21764
LeftToes  -1.1369e-010 2.7689e-011 -1.90827e-011
151
root  7.97735 36.4131 5.63928 -168.165 -46.1252 -179.949
RightUpLeg  -47.1125 6.94887 -0.705878
RightLeg  38.5882 8.41435 6.89315
RightFoot  -1.21634 -0.280112 3.04655
RightToes  5.82063e-011 0 -3.6325e-017
Spine  43.4297 -1.94443 4.62863
Spine1  -13.6011 1.00304 -4.11212
HEad  -52.4563 -19.2841 12.5771
LeftShoulder1  -0.0618407 -1.43467 11.097
LeftArm  75.7791 -73.8278 -151.783
LeftForeArm  141.396 -76.9396 -132.723
LeftHand  -1.03586 0.307403 23.5606
RightShoulder  -0.375028 3.64457 -15.7417
RightArm  -17.0614 83.4542 55.3332
RightForeArm  19.8906 -6.97454 6.55663
RightHand  0.380644 -9.56515 -11.4561
LeftUpLeg  -43.1345 -3.1669 -5.03049
LeftLeg  49.6039 23.6554 27.1919
LeftFoot  -10.8288 0.093065 -6.51668
LeftToes  -1.1369e-010 2.7689e-011 -1.90827e-011
152
root  7.79635 36.8119 5.70328 -168.178 -44.6342 -178.831
RightUpLeg  -45.925 6.37381 0.368291
RightLeg  35.2186 10.5337 7.67757
RightFoot  0.154688 -0.408973 4.07778
RightToes  5.82063e-011 0 -3.6325e-017
Spine  43.199 -1.90594 3.89888
Spine1  -15.0073 0.614019 -2.92273
HEad  -44.8706 -19.0106 14.0758
LeftShoulder1  -0.0861749 -1.30842 11.7057
LeftArm  76.6247 -74.8868 -153.229
LeftForeArm  140.696 -77.0629 -132.086
LeftHand  -1.03146 0.461065 24.1695
RightShoulder  -0.360182 2.64838 -16.4703
RightArm  -44.8552 85.2686 25.2452
RightForeArm  18.0611 -6.91652 6.16235
RightHand  0.337524 -9.09737 -11.5106
LeftUpLeg  -42.6664 -4.12341 -3.76718
LeftLeg  48.0711 25.6336 27.6483
LeftFoot  -9.53023 0.157557 -6.32942
LeftToes  -1.1369e-010 2.7689e-011 -1.90827e-011
